<?xml version="1.0" encoding="utf-8"?>
<!-- Generator: Adobe Illustrator 25.1.0, SVG Export Plug-In . SVG Version: 6.00 Build 0)  -->
<svg version="1.1" id="Ebene_1" xmlns="http://www.w3.org/2000/svg" xmlns:xlink="http://www.w3.org/1999/xlink" x="0px" y="0px"
	 viewBox="0 0 3215.1 1328.7" style="enable-background:new 0 0 3215.1 1328.7;" xml:space="preserve">
<style type="text/css">
	.st0{fill:#FFFFFF;}
</style>
<g>
	<path class="st0" d="M616.8,0H746v1307.2H616.8v-104c-43,55.6-123.7,125.5-254.6,125.5C173.9,1328.7,0,1196,0,934.2
		c0-256.4,172.1-389.1,362.2-389.1c143.4,0,220.6,78.9,254.6,123.7L616.8,0L616.8,0z M132.7,934.2c0,159.6,89.7,279.7,243.9,279.7
		C534.4,1214,624,1083.1,624,936c0-191.9-132.7-276.1-247.5-276.1C249.2,659.9,132.7,753.1,132.7,934.2z"/>
	<path class="st0" d="M1560,563h129.1v744.1H1560v-104c-43,55.6-123.7,125.5-254.6,125.5c-188.3,0-362.2-132.7-362.2-394.5
		c0-256.4,172.1-389.1,362.2-389.1c143.4,0,220.6,78.9,254.6,123.7V563z M1075.9,934.2c0,159.6,89.7,279.7,243.9,279.7
		c157.8,0,247.4-130.9,247.4-277.9c0-191.9-132.7-276.1-247.4-276.1C1192.4,659.9,1075.9,753.1,1075.9,934.2z"/>
	<path class="st0" d="M2062.1,0v1307.2H1933V0H2062.1z"/>
	<path class="st0" d="M2435,997c0,52,0,113,35.9,159.6c19.7,25.1,59.2,57.4,130.9,57.4s111.2-32.3,130.9-57.4
		c35.9-46.6,35.9-107.6,35.9-159.6V563h129.1v448.3c0,91.4-9,159.6-68.1,224.1c-66.4,69.9-154.2,93.2-227.7,93.2
		s-161.4-23.3-227.7-93.2c-59.2-64.6-68.1-132.7-68.1-224.1V563H2435L2435,997L2435,997z"/>
	<circle class="st0" cx="3125.4" cy="1235.9" r="89.7"/>
</g>
</svg>
