<?xml version="1.0" encoding="utf-8"?>
<!-- Generator: Adobe Illustrator 25.1.0, SVG Export Plug-In . SVG Version: 6.00 Build 0)  -->
<svg version="1.1" id="Ebene_1" xmlns="http://www.w3.org/2000/svg" xmlns:xlink="http://www.w3.org/1999/xlink" x="0px" y="0px"
	 viewBox="0 0 3215.06 1328.72" style="enable-background:new 0 0 3215.06 1328.72;" xml:space="preserve">
<style type="text/css">
	.st0{fill:#113042;}
	.st1{fill:#3790AF;}
</style>
<g>
	<path class="st0" d="M616.84,0h129.11v1307.2H616.84v-104c-43.04,55.59-123.73,125.52-254.63,125.52
		C173.93,1328.72,0,1196.03,0,934.23c0-256.42,172.14-389.11,362.21-389.11c143.45,0,220.56,78.9,254.63,123.73V0z M132.69,934.23
		c0,159.59,89.66,279.73,243.87,279.73c157.8,0,247.45-130.9,247.45-277.94c0-191.87-132.69-276.14-247.45-276.14
		C249.25,659.88,132.69,753.12,132.69,934.23z"/>
	<path class="st0" d="M1560.01,563.05h129.1v744.15h-129.1v-104c-43.04,55.59-123.73,125.52-254.63,125.52
		c-188.28,0-362.22-132.69-362.22-394.49c0-256.42,172.14-389.11,362.22-389.11c143.45,0,220.56,78.9,254.63,123.73V563.05z
		 M1075.86,934.23c0,159.59,89.66,279.73,243.87,279.73c157.8,0,247.45-130.9,247.45-277.94c0-191.87-132.69-276.14-247.45-276.14
		C1192.41,659.88,1075.86,753.12,1075.86,934.23z"/>
	<path class="st0" d="M2062.07,0v1307.2h-129.11V0H2062.07z"/>
	<path class="st0" d="M2435.03,996.99c0,52,0,112.97,35.86,159.59c19.72,25.1,59.17,57.38,130.9,57.38s111.17-32.28,130.9-57.38
		c35.86-46.62,35.86-107.59,35.86-159.59V563.05h129.11v448.29c0,91.45-8.97,159.59-68.14,224.14
		c-66.35,69.93-154.21,93.24-227.73,93.24s-161.38-23.31-227.73-93.24c-59.17-64.55-68.14-132.69-68.14-224.14V563.05h129.11V996.99
		z"/>
	<circle class="st1" cx="3125.41" cy="1235.93" r="89.66"/>
</g>
</svg>
